<?xml version="1.0" encoding="UTF-8"?>
<svg version="1.1" xmlns="http://www.w3.org/2000/svg" width="54" height="49">
<path d="M0 0 C17.82 0 35.64 0 54 0 C54 16.17 54 32.34 54 49 C36.18 49 18.36 49 0 49 C0 32.83 0 16.66 0 0 Z " fill="#5D90D3" transform="translate(0,0)"/>
<path d="M0 0 C0.804375 0.185625 1.60875 0.37125 2.4375 0.5625 C5.02403816 1.00410408 6.41164722 0.76186789 8.9375 0.25 C12.15307479 -0.2076245 13.83318789 0.03983937 16.5 1.9375 C19.11708688 5.14343143 19.80759347 6.89473553 19.4375 11.03515625 C17.76400302 18.55095071 10.27866256 23.90266554 5 29 C1.40155551 27.48357123 -0.85713143 25.35026558 -3.5625 22.5625 C-4.32691406 21.78003906 -5.09132813 20.99757813 -5.87890625 20.19140625 C-6.57886719 19.46824219 -7.27882813 18.74507812 -8 18 C-8.56589844 17.45214844 -9.13179687 16.90429688 -9.71484375 16.33984375 C-12.35872392 13.58345804 -12.40101406 10.77435792 -12.33984375 7.04296875 C-12 5 -12 5 -9.9375 2 C-6.27493781 -0.49365936 -4.35653202 -0.46677129 0 0 Z " fill="#F2F6FB" transform="translate(24,12)"/>
<path d="M0 0 C2.375 1 2.375 1 4 2 C4.99 1.34 5.98 0.68 7 0 C10.0875593 -0.32162076 12.14015561 -0.48724515 14.875 1.0625 C16.58196395 4.00227124 16.18799766 6.67870803 16 10 C13.69 10 11.38 10 9 10 C8.67 8.35 8.34 6.7 8 5 C7.01 5 6.02 5 5 5 C4.67 7.31 4.34 9.62 4 12 C3.34 11.67 2.68 11.34 2 11 C2 10.34 2 9.68 2 9 C1.01 9.33 0.02 9.66 -1 10 C-2.39439664 10.06665376 -3.79169875 10.08538199 -5.1875 10.0625 C-7.0746875 10.0315625 -7.0746875 10.0315625 -9 10 C-9.36103152 3.6217765 -9.36103152 3.6217765 -7.875 1.0625 C-5.12948906 -0.49328953 -3.10510946 -0.3168479 0 0 Z " fill="#5D96D2" transform="translate(24,15)"/>
<path d="M0 0 C2.31 0.66 4.62 1.32 7 2 C6.0919838 3.13199353 5.17316174 4.25532363 4.25 5.375 C3.73953125 6.00148438 3.2290625 6.62796875 2.703125 7.2734375 C0.91800519 9.08312318 -0.67949644 10.00117455 -3 11 C-4.33631236 9.6905332 -5.66897925 8.37734515 -7 7.0625 C-7.7425 6.33160156 -8.485 5.60070312 -9.25 4.84765625 C-11 3 -11 3 -11 2 C-9.02 2 -7.04 2 -5 2 C-4.67 3.65 -4.34 5.3 -4 7 C-3.01 7 -2.02 7 -1 7 C-0.67 4.69 -0.34 2.38 0 0 Z " fill="#6C93D8" transform="translate(30,26)"/>
</svg>
